<svg width="392" height="77" viewBox="0 0 392 77" fill="none" xmlns="http://www.w3.org/2000/svg">
<path d="M38.296 76.96C33.112 76.96 28.248 75.968 23.704 73.984C19.224 72 15.256 69.248 11.8 65.728C8.408 62.144 5.752 58.048 3.832 53.44C1.912 48.768 0.952 43.776 0.952 38.464C0.952 33.216 1.88 28.288 3.736 23.68C5.656 19.008 8.312 14.912 11.704 11.392C15.16 7.872 19.128 5.12 23.608 3.13599C28.152 1.088 33.048 0.0639992 38.296 0.0639992C42.904 0.0639992 47.096 0.735998 50.872 2.08C54.648 3.424 58.296 5.568 61.816 8.512C62.648 9.152 63 9.984 62.872 11.008C62.744 11.968 62.264 12.64 61.432 13.024C61.24 13.792 60.632 14.272 59.608 14.464C58.648 14.656 57.688 14.368 56.728 13.6C54.232 11.424 51.512 9.824 48.568 8.8C45.624 7.712 42.2 7.168 38.296 7.168C34.136 7.168 30.232 8 26.584 9.664C23 11.328 19.832 13.6 17.08 16.48C14.328 19.36 12.152 22.688 10.552 26.464C9.016 30.24 8.248 34.24 8.248 38.464C8.248 42.816 9.016 46.88 10.552 50.656C12.152 54.432 14.328 57.76 17.08 60.64C19.832 63.52 23 65.792 26.584 67.456C30.232 69.056 34.136 69.856 38.296 69.856C45.208 69.856 51.512 67.616 57.208 63.136C58.36 62.24 59.576 62.112 60.856 62.752C62.2 63.392 62.872 64.48 62.872 66.016C62.872 67.04 62.52 67.936 61.816 68.704C58.552 71.712 54.904 73.856 50.872 75.136C46.84 76.352 42.648 76.96 38.296 76.96ZM97.7628 76.48C92.6428 76.48 88.0668 75.328 84.0348 73.024C80.0028 70.72 76.8348 67.552 74.5308 63.52C72.2268 59.488 71.0748 54.912 71.0748 49.792C71.0748 44.608 72.2268 40 74.5308 35.968C76.8348 31.936 80.0028 28.768 84.0348 26.464C88.0668 24.16 92.6428 23.008 97.7628 23.008C102.883 23.008 107.427 24.16 111.395 26.464C115.427 28.768 118.595 31.936 120.899 35.968C123.203 40 124.387 44.608 124.451 49.792C124.451 54.912 123.267 59.488 120.899 63.52C118.595 67.552 115.427 70.72 111.395 73.024C107.427 75.328 102.883 76.48 97.7628 76.48ZM97.7628 69.76C101.475 69.76 104.803 68.896 107.747 67.168C110.691 65.44 112.995 63.072 114.659 60.064C116.323 57.056 117.155 53.632 117.155 49.792C117.155 45.952 116.323 42.528 114.659 39.52C112.995 36.448 110.691 34.048 107.747 32.32C104.803 30.592 101.475 29.728 97.7628 29.728C94.0508 29.728 90.7228 30.592 87.7788 32.32C84.8348 34.048 82.4988 36.448 80.7708 39.52C79.1068 42.528 78.2748 45.952 78.2748 49.792C78.2748 53.632 79.1068 57.056 80.7708 60.064C82.4988 63.072 84.8348 65.44 87.7788 67.168C90.7228 68.896 94.0508 69.76 97.7628 69.76ZM142.572 76C141.42 76 140.492 75.68 139.788 75.04C139.148 74.336 138.828 73.44 138.828 72.352V27.232C138.828 26.08 139.148 25.184 139.788 24.544C140.492 23.84 141.42 23.488 142.572 23.488C143.66 23.488 144.524 23.84 145.164 24.544C145.868 25.184 146.22 26.08 146.22 27.232V30.496C148.268 28.128 150.796 26.272 153.804 24.928C156.876 23.584 160.172 22.912 163.692 22.912C168.236 22.912 172.3 23.872 175.884 25.792C179.468 27.648 182.284 30.4 184.332 34.048C186.444 37.696 187.5 42.144 187.5 47.392V72.352C187.5 73.376 187.148 74.24 186.444 74.944C185.74 75.648 184.876 76 183.852 76C182.764 76 181.868 75.648 181.164 74.944C180.46 74.24 180.108 73.376 180.108 72.352V47.392C180.108 41.44 178.444 37.056 175.116 34.24C171.852 31.36 167.788 29.92 162.924 29.92C159.788 29.92 156.94 30.528 154.38 31.744C151.884 32.96 149.9 34.624 148.428 36.736C146.956 38.848 146.22 41.248 146.22 43.936V72.352C146.22 73.44 145.868 74.336 145.164 75.04C144.524 75.68 143.66 76 142.572 76ZM224.34 76C220.948 76 217.908 75.2 215.22 73.6C212.596 72 210.516 69.824 208.98 67.072C207.444 64.256 206.676 61.056 206.676 57.472V31.84H200.436C199.476 31.84 198.676 31.552 198.036 30.976C197.396 30.336 197.076 29.568 197.076 28.672C197.076 27.712 197.396 26.944 198.036 26.368C198.676 25.728 199.476 25.408 200.436 25.408H206.676V10.528C206.676 9.43999 206.996 8.54399 207.636 7.84C208.34 7.136 209.236 6.784 210.324 6.784C211.412 6.784 212.308 7.136 213.012 7.84C213.716 8.54399 214.068 9.43999 214.068 10.528V25.408H224.916C225.876 25.408 226.676 25.728 227.316 26.368C227.956 26.944 228.276 27.712 228.276 28.672C228.276 29.568 227.956 30.336 227.316 30.976C226.676 31.552 225.876 31.84 224.916 31.84H214.068V57.472C214.068 60.736 215.028 63.424 216.948 65.536C218.868 67.584 221.332 68.608 224.34 68.608H226.932C227.956 68.608 228.788 68.96 229.428 69.664C230.068 70.368 230.388 71.264 230.388 72.352C230.388 73.44 230.004 74.336 229.236 75.04C228.468 75.68 227.508 76 226.356 76H224.34ZM265.557 76.48C260.629 76.48 256.213 75.328 252.309 73.024C248.405 70.656 245.301 67.456 242.997 63.424C240.757 59.392 239.637 54.848 239.637 49.792C239.637 44.672 240.789 40.096 243.093 36.064C245.461 32.032 248.661 28.864 252.693 26.56C256.725 24.192 261.269 23.008 266.325 23.008C271.381 23.008 275.893 24.192 279.861 26.56C283.893 28.864 287.061 32.032 289.365 36.064C291.733 40.096 292.949 44.672 293.013 49.792V72.352C293.013 73.44 292.661 74.336 291.957 75.04C291.253 75.68 290.357 76 289.269 76C288.181 76 287.285 75.68 286.581 75.04C285.877 74.336 285.525 73.44 285.525 72.352V66.496C283.349 69.568 280.533 72 277.077 73.792C273.621 75.584 269.781 76.48 265.557 76.48ZM266.325 69.76C270.037 69.76 273.333 68.896 276.213 67.168C279.157 65.44 281.461 63.072 283.125 60.064C284.853 56.992 285.717 53.568 285.717 49.792C285.717 45.952 284.853 42.528 283.125 39.52C281.461 36.512 279.157 34.144 276.213 32.416C273.333 30.624 270.037 29.728 266.325 29.728C262.677 29.728 259.381 30.624 256.437 32.416C253.493 34.144 251.157 36.512 249.429 39.52C247.701 42.528 246.837 45.952 246.837 49.792C246.837 53.568 247.701 56.992 249.429 60.064C251.157 63.072 253.493 65.44 256.437 67.168C259.381 68.896 262.677 69.76 266.325 69.76ZM330.814 76.48C325.758 76.48 321.246 75.328 317.278 73.024C313.374 70.656 310.27 67.456 307.966 63.424C305.726 59.392 304.606 54.848 304.606 49.792C304.606 44.672 305.694 40.096 307.87 36.064C310.046 32.032 313.022 28.864 316.798 26.56C320.574 24.192 324.926 23.008 329.854 23.008C337.854 23.008 344.35 26.08 349.342 32.224C350.046 32.992 350.302 33.824 350.11 34.72C349.918 35.552 349.374 36.288 348.478 36.928C347.774 37.44 346.974 37.632 346.078 37.504C345.246 37.312 344.51 36.832 343.87 36.064C340.158 31.84 335.486 29.728 329.854 29.728C326.27 29.728 323.102 30.592 320.35 32.32C317.662 34.048 315.55 36.416 314.014 39.424C312.542 42.432 311.806 45.888 311.806 49.792C311.806 53.632 312.606 57.056 314.206 60.064C315.806 63.072 318.046 65.44 320.926 67.168C323.806 68.896 327.102 69.76 330.814 69.76C335.934 69.76 340.062 68.384 343.198 65.632C343.966 64.992 344.766 64.64 345.598 64.576C346.43 64.512 347.198 64.768 347.902 65.344C348.67 66.048 349.086 66.848 349.15 67.744C349.278 68.64 348.99 69.408 348.286 70.048C343.614 74.336 337.79 76.48 330.814 76.48ZM385.122 76C381.73 76 378.69 75.2 376.002 73.6C373.378 72 371.298 69.824 369.762 67.072C368.226 64.256 367.458 61.056 367.458 57.472V31.84H361.218C360.258 31.84 359.458 31.552 358.818 30.976C358.178 30.336 357.858 29.568 357.858 28.672C357.858 27.712 358.178 26.944 358.818 26.368C359.458 25.728 360.258 25.408 361.218 25.408H367.458V10.528C367.458 9.43999 367.778 8.54399 368.418 7.84C369.122 7.136 370.018 6.784 371.106 6.784C372.194 6.784 373.09 7.136 373.794 7.84C374.498 8.54399 374.85 9.43999 374.85 10.528V25.408H385.698C386.658 25.408 387.458 25.728 388.098 26.368C388.738 26.944 389.058 27.712 389.058 28.672C389.058 29.568 388.738 30.336 388.098 30.976C387.458 31.552 386.658 31.84 385.698 31.84H374.85V57.472C374.85 60.736 375.81 63.424 377.73 65.536C379.65 67.584 382.114 68.608 385.122 68.608H387.714C388.738 68.608 389.57 68.96 390.21 69.664C390.85 70.368 391.17 71.264 391.17 72.352C391.17 73.44 390.786 74.336 390.018 75.04C389.25 75.68 388.29 76 387.138 76H385.122Z" fill="#277B77" fill-opacity="0.1"/>
</svg>
