<svg width="68" height="68" viewBox="0 0 68 68" fill="none" xmlns="http://www.w3.org/2000/svg">
<rect x="24.9095" y="10.0602" width="7.27273" height="7.5" rx="3.63636" transform="rotate(45 24.9095 10.0602)" fill="#C4C4C4" fill-opacity="0.25"/>
<rect x="33.9411" width="7.27273" height="7.5" rx="3.63636" transform="rotate(45 33.9411 0)" fill="#C4C4C4" fill-opacity="0.25"/>
<rect x="34.1661" y="19.3169" width="7.27273" height="7.5" rx="3.63636" transform="rotate(45 34.1661 19.3169)" fill="#C4C4C4" fill-opacity="0.25"/>
<rect x="43.1978" y="9.25659" width="7.27273" height="7.5" rx="3.63636" transform="rotate(45 43.1978 9.25659)" fill="#C4C4C4" fill-opacity="0.25"/>
<rect x="5.81756" y="29.1521" width="7.27273" height="7.5" rx="3.63636" transform="rotate(45 5.81756 29.1521)" fill="#C4C4C4" fill-opacity="0.25"/>
<rect x="14.8492" y="19.0919" width="7.27273" height="7.5" rx="3.63636" transform="rotate(45 14.8492 19.0919)" fill="#C4C4C4" fill-opacity="0.25"/>
<rect x="15.0742" y="38.4088" width="7.27273" height="7.5" rx="3.63636" transform="rotate(45 15.0742 38.4088)" fill="#C4C4C4" fill-opacity="0.25"/>
<rect x="24.1059" y="28.3485" width="7.27273" height="7.5" rx="3.63636" transform="rotate(45 24.1059 28.3485)" fill="#C4C4C4" fill-opacity="0.25"/>
<rect x="24.8452" y="48.1797" width="7.27273" height="7.5" rx="3.63636" transform="rotate(45 24.8452 48.1797)" fill="#C4C4C4" fill-opacity="0.25"/>
<rect x="33.8768" y="38.1195" width="7.27273" height="7.5" rx="3.63636" transform="rotate(45 33.8768 38.1195)" fill="#C4C4C4" fill-opacity="0.25"/>
<rect x="34.1018" y="57.4364" width="7.27273" height="7.5" rx="3.63636" transform="rotate(45 34.1018 57.4364)" fill="#C4C4C4" fill-opacity="0.25"/>
<rect x="43.1335" y="47.3762" width="7.27273" height="7.5" rx="3.63636" transform="rotate(45 43.1335 47.3762)" fill="#C4C4C4" fill-opacity="0.25"/>
</svg>
