<svg width="408" height="76" viewBox="0 0 408 76" fill="none" xmlns="http://www.w3.org/2000/svg">
<path d="M4.344 75C3.256 75 2.36 74.648 1.656 73.944C0.952 73.24 0.6 72.344 0.6 71.256V3.768C0.6 2.67999 0.952 1.78399 1.656 1.08C2.36 0.375998 3.256 0.0239983 4.344 0.0239983H23.544C28.28 0.0239983 32.472 1.08 36.12 3.192C39.768 5.24 42.616 8.088 44.664 11.736C46.712 15.384 47.736 19.608 47.736 24.408C47.736 29.08 46.712 33.24 44.664 36.888C42.616 40.472 39.768 43.32 36.12 45.432C32.472 47.48 28.28 48.504 23.544 48.504H8.088V71.256C8.088 72.344 7.736 73.24 7.032 73.944C6.328 74.648 5.432 75 4.344 75ZM8.088 41.304H23.544C26.808 41.304 29.72 40.6 32.28 39.192C34.84 37.72 36.824 35.704 38.232 33.144C39.704 30.584 40.44 27.672 40.44 24.408C40.44 21.016 39.704 18.04 38.232 15.48C36.824 12.92 34.84 10.904 32.28 9.432C29.72 7.96 26.808 7.224 23.544 7.224H8.088V41.304ZM80.4503 75.48C75.3303 75.48 70.7543 74.328 66.7223 72.024C62.6903 69.72 59.5223 66.552 57.2183 62.52C54.9143 58.488 53.7623 53.912 53.7623 48.792C53.7623 43.608 54.9143 39 57.2183 34.968C59.5223 30.936 62.6903 27.768 66.7223 25.464C70.7543 23.16 75.3303 22.008 80.4503 22.008C85.5703 22.008 90.1143 23.16 94.0823 25.464C98.1143 27.768 101.282 30.936 103.586 34.968C105.89 39 107.074 43.608 107.138 48.792C107.138 53.912 105.954 58.488 103.586 62.52C101.282 66.552 98.1143 69.72 94.0823 72.024C90.1143 74.328 85.5703 75.48 80.4503 75.48ZM80.4503 68.76C84.1623 68.76 87.4903 67.896 90.4343 66.168C93.3783 64.44 95.6823 62.072 97.3463 59.064C99.0103 56.056 99.8423 52.632 99.8423 48.792C99.8423 44.952 99.0103 41.528 97.3463 38.52C95.6823 35.448 93.3783 33.048 90.4343 31.32C87.4903 29.592 84.1623 28.728 80.4503 28.728C76.7383 28.728 73.4103 29.592 70.4663 31.32C67.5223 33.048 65.1863 35.448 63.4583 38.52C61.7943 41.528 60.9623 44.952 60.9623 48.792C60.9623 52.632 61.7943 56.056 63.4583 59.064C65.1863 62.072 67.5223 64.44 70.4663 66.168C73.4103 67.896 76.7383 68.76 80.4503 68.76ZM125.163 75C122.731 75 121.515 73.784 121.515 71.352V26.136C121.515 23.704 122.731 22.488 125.163 22.488C127.595 22.488 128.811 23.704 128.811 26.136V30.264C130.731 27.704 133.099 25.688 135.915 24.216C138.731 22.68 141.835 21.912 145.227 21.912C148.171 21.912 150.443 22.328 152.043 23.16C153.643 23.992 154.251 25.208 153.867 26.808C153.547 28.28 152.779 29.048 151.563 29.112C150.411 29.112 149.035 29.048 147.435 28.92C143.851 28.6 140.651 28.984 137.835 30.072C135.083 31.096 132.875 32.696 131.211 34.872C129.611 37.048 128.811 39.64 128.811 42.648V71.352C128.811 73.784 127.595 75 125.163 75ZM186.028 75C182.636 75 179.596 74.2 176.908 72.6C174.284 71 172.204 68.824 170.668 66.072C169.132 63.256 168.364 60.056 168.364 56.472V30.84H162.124C161.164 30.84 160.364 30.552 159.724 29.976C159.084 29.336 158.764 28.568 158.764 27.672C158.764 26.712 159.084 25.944 159.724 25.368C160.364 24.728 161.164 24.408 162.124 24.408H168.364V9.528C168.364 8.43999 168.684 7.54399 169.324 6.84C170.028 6.136 170.924 5.784 172.012 5.784C173.1 5.784 173.996 6.136 174.7 6.84C175.404 7.54399 175.756 8.43999 175.756 9.528V24.408H186.604C187.564 24.408 188.364 24.728 189.004 25.368C189.644 25.944 189.964 26.712 189.964 27.672C189.964 28.568 189.644 29.336 189.004 29.976C188.364 30.552 187.564 30.84 186.604 30.84H175.756V56.472C175.756 59.736 176.716 62.424 178.636 64.536C180.556 66.584 183.02 67.608 186.028 67.608H188.62C189.644 67.608 190.476 67.96 191.116 68.664C191.756 69.368 192.076 70.264 192.076 71.352C192.076 72.44 191.692 73.336 190.924 74.04C190.156 74.68 189.196 75 188.044 75H186.028ZM210.637 75C209.677 75 208.845 74.68 208.141 74.04C207.437 73.336 207.085 72.408 207.085 71.256V30.84H200.941C199.917 30.84 199.085 30.552 198.445 29.976C197.869 29.336 197.581 28.568 197.581 27.672C197.581 26.712 197.869 25.944 198.445 25.368C199.085 24.728 199.917 24.408 200.941 24.408H207.085V22.584C207.085 15.864 208.813 10.424 212.269 6.264C215.725 2.104 220.717 0.0239983 227.245 0.0239983C228.333 0.0239983 229.229 0.343998 229.933 0.983997C230.637 1.624 230.989 2.424 230.989 3.384C230.989 4.344 230.637 5.144 229.933 5.784C229.229 6.424 228.333 6.744 227.245 6.744C222.893 6.744 219.661 8.216 217.549 11.16C215.501 14.04 214.477 17.72 214.477 22.2V24.408H225.997C227.021 24.408 227.821 24.728 228.397 25.368C229.037 25.944 229.357 26.712 229.357 27.672C229.357 28.568 229.037 29.336 228.397 29.976C227.821 30.552 227.021 30.84 225.997 30.84H214.477V71.256C214.477 72.408 214.125 73.336 213.421 74.04C212.781 74.68 211.853 75 210.637 75ZM261.294 75.48C256.174 75.48 251.598 74.328 247.566 72.024C243.534 69.72 240.366 66.552 238.062 62.52C235.758 58.488 234.606 53.912 234.606 48.792C234.606 43.608 235.758 39 238.062 34.968C240.366 30.936 243.534 27.768 247.566 25.464C251.598 23.16 256.174 22.008 261.294 22.008C266.414 22.008 270.958 23.16 274.926 25.464C278.958 27.768 282.126 30.936 284.43 34.968C286.734 39 287.918 43.608 287.982 48.792C287.982 53.912 286.798 58.488 284.43 62.52C282.126 66.552 278.958 69.72 274.926 72.024C270.958 74.328 266.414 75.48 261.294 75.48ZM261.294 68.76C265.006 68.76 268.334 67.896 271.278 66.168C274.222 64.44 276.526 62.072 278.19 59.064C279.854 56.056 280.686 52.632 280.686 48.792C280.686 44.952 279.854 41.528 278.19 38.52C276.526 35.448 274.222 33.048 271.278 31.32C268.334 29.592 265.006 28.728 261.294 28.728C257.582 28.728 254.254 29.592 251.31 31.32C248.366 33.048 246.03 35.448 244.302 38.52C242.638 41.528 241.806 44.952 241.806 48.792C241.806 52.632 242.638 56.056 244.302 59.064C246.03 62.072 248.366 64.44 251.31 66.168C254.254 67.896 257.582 68.76 261.294 68.76ZM313.687 75C309.847 75 306.679 73.464 304.183 70.392C301.687 67.256 300.439 63.256 300.439 58.392V3.672C300.439 2.584 300.759 1.72 301.399 1.08C302.103 0.375998 302.999 0.0239983 304.087 0.0239983C305.175 0.0239983 306.039 0.375998 306.679 1.08C307.383 1.72 307.735 2.584 307.735 3.672V58.392C307.735 61.144 308.279 63.384 309.367 65.112C310.519 66.84 311.959 67.704 313.687 67.704H316.087C317.047 67.704 317.815 68.056 318.391 68.76C318.967 69.4 319.255 70.264 319.255 71.352C319.255 72.44 318.839 73.336 318.007 74.04C317.239 74.68 316.215 75 314.935 75H313.687ZM334.733 75C333.581 75 332.653 74.68 331.949 74.04C331.309 73.336 330.989 72.408 330.989 71.256V26.232C330.989 25.08 331.309 24.184 331.949 23.544C332.653 22.84 333.581 22.488 334.733 22.488C335.821 22.488 336.685 22.84 337.325 23.544C338.029 24.184 338.381 25.08 338.381 26.232V71.256C338.381 72.408 338.029 73.336 337.325 74.04C336.685 74.68 335.821 75 334.733 75ZM334.637 12.504C333.229 12.504 332.013 11.992 330.989 10.968C329.965 9.944 329.453 8.696 329.453 7.224C329.453 5.624 329.965 4.376 330.989 3.47999C332.077 2.51999 333.325 2.04 334.733 2.04C336.077 2.04 337.261 2.51999 338.285 3.47999C339.373 4.376 339.917 5.624 339.917 7.224C339.917 8.696 339.405 9.944 338.381 10.968C337.357 11.992 336.109 12.504 334.637 12.504ZM381.107 75.48C375.987 75.48 371.411 74.328 367.379 72.024C363.347 69.72 360.179 66.552 357.875 62.52C355.571 58.488 354.419 53.912 354.419 48.792C354.419 43.608 355.571 39 357.875 34.968C360.179 30.936 363.347 27.768 367.379 25.464C371.411 23.16 375.987 22.008 381.107 22.008C386.227 22.008 390.771 23.16 394.739 25.464C398.771 27.768 401.939 30.936 404.243 34.968C406.547 39 407.731 43.608 407.795 48.792C407.795 53.912 406.611 58.488 404.243 62.52C401.939 66.552 398.771 69.72 394.739 72.024C390.771 74.328 386.227 75.48 381.107 75.48ZM381.107 68.76C384.819 68.76 388.147 67.896 391.091 66.168C394.035 64.44 396.339 62.072 398.003 59.064C399.667 56.056 400.499 52.632 400.499 48.792C400.499 44.952 399.667 41.528 398.003 38.52C396.339 35.448 394.035 33.048 391.091 31.32C388.147 29.592 384.819 28.728 381.107 28.728C377.395 28.728 374.067 29.592 371.123 31.32C368.179 33.048 365.843 35.448 364.115 38.52C362.451 41.528 361.619 44.952 361.619 48.792C361.619 52.632 362.451 56.056 364.115 59.064C365.843 62.072 368.179 64.44 371.123 66.168C374.067 67.896 377.395 68.76 381.107 68.76Z" fill="#277B77" fill-opacity="0.1"/>
</svg>
