<svg width="191" height="39" viewBox="0 0 191 39" fill="none" xmlns="http://www.w3.org/2000/svg">
<path d="M2.672 38C2.128 38 1.68 37.824 1.328 37.472C0.976 37.12 0.8 36.672 0.8 36.128V2.384C0.8 1.84 0.976 1.392 1.328 1.04C1.68 0.687999 2.128 0.511999 2.672 0.511999H12.272C14.64 0.511999 16.736 1.04 18.56 2.096C20.384 3.12 21.808 4.544 22.832 6.368C23.856 8.192 24.368 10.304 24.368 12.704C24.368 15.04 23.856 17.12 22.832 18.944C21.808 20.736 20.384 22.16 18.56 23.216C16.736 24.24 14.64 24.752 12.272 24.752H4.544V36.128C4.544 36.672 4.368 37.12 4.016 37.472C3.664 37.824 3.216 38 2.672 38ZM4.544 21.152H12.272C13.904 21.152 15.36 20.8 16.64 20.096C17.92 19.36 18.912 18.352 19.616 17.072C20.352 15.792 20.72 14.336 20.72 12.704C20.72 11.008 20.352 9.52 19.616 8.24C18.912 6.96 17.92 5.952 16.64 5.216C15.36 4.48 13.904 4.112 12.272 4.112H4.544V21.152ZM31.5346 38C30.3186 38 29.7106 37.392 29.7106 36.176V13.568C29.7106 12.352 30.3186 11.744 31.5346 11.744C32.7506 11.744 33.3586 12.352 33.3586 13.568V15.632C34.3186 14.352 35.5026 13.344 36.9106 12.608C38.3186 11.84 39.8706 11.456 41.5666 11.456C43.0386 11.456 44.1746 11.664 44.9746 12.08C45.7746 12.496 46.0786 13.104 45.8866 13.904C45.7266 14.64 45.3426 15.024 44.7346 15.056C44.1586 15.056 43.4706 15.024 42.6706 14.96C40.8786 14.8 39.2786 14.992 37.8706 15.536C36.4946 16.048 35.3906 16.848 34.5586 17.936C33.7586 19.024 33.3586 20.32 33.3586 21.824V36.176C33.3586 37.392 32.7506 38 31.5346 38ZM61.7251 38.24C59.1651 38.24 56.8771 37.664 54.8611 36.512C52.8451 35.36 51.2611 33.776 50.1091 31.76C48.9571 29.744 48.3811 27.456 48.3811 24.896C48.3811 22.304 48.9571 20 50.1091 17.984C51.2611 15.968 52.8451 14.384 54.8611 13.232C56.8771 12.08 59.1651 11.504 61.7251 11.504C64.2851 11.504 66.5571 12.08 68.5411 13.232C70.5571 14.384 72.1411 15.968 73.2931 17.984C74.4451 20 75.0371 22.304 75.0691 24.896C75.0691 27.456 74.4771 29.744 73.2931 31.76C72.1411 33.776 70.5571 35.36 68.5411 36.512C66.5571 37.664 64.2851 38.24 61.7251 38.24ZM61.7251 34.88C63.5811 34.88 65.2451 34.448 66.7171 33.584C68.1891 32.72 69.3411 31.536 70.1731 30.032C71.0051 28.528 71.4211 26.816 71.4211 24.896C71.4211 22.976 71.0051 21.264 70.1731 19.76C69.3411 18.224 68.1891 17.024 66.7171 16.16C65.2451 15.296 63.5811 14.864 61.7251 14.864C59.8691 14.864 58.2051 15.296 56.7331 16.16C55.2611 17.024 54.0931 18.224 53.2291 19.76C52.3971 21.264 51.9811 22.976 51.9811 24.896C51.9811 26.816 52.3971 28.528 53.2291 30.032C54.0931 31.536 55.2611 32.72 56.7331 33.584C58.2051 34.448 59.8691 34.88 61.7251 34.88ZM86.7564 38C85.8604 38 85.2684 37.6 84.9804 36.8L77.4924 14.336C77.0764 12.608 77.5404 11.744 78.8844 11.744C79.7484 11.744 80.3564 12.208 80.7084 13.136L86.8524 31.856L92.5164 13.184C92.6444 12.768 92.8524 12.432 93.1404 12.176C93.4604 11.888 93.8604 11.744 94.3404 11.744C95.2684 11.744 95.8764 12.224 96.1644 13.184L101.684 31.76L107.78 13.136C108.1 12.208 108.692 11.744 109.556 11.744C110.26 11.744 110.74 12.016 110.996 12.56C111.252 13.072 111.252 13.664 110.996 14.336L103.508 36.8C103.252 37.6 102.676 38 101.78 38C101.364 38 100.98 37.888 100.628 37.664C100.308 37.44 100.1 37.152 100.004 36.8L94.2444 17.696L88.4844 36.8C88.1964 37.6 87.6204 38 86.7564 38ZM127.302 38.24C124.71 38.24 122.406 37.68 120.39 36.56C118.406 35.408 116.838 33.824 115.686 31.808C114.566 29.792 114.006 27.488 114.006 24.896C114.006 22.272 114.534 19.968 115.59 17.984C116.678 15.968 118.166 14.384 120.054 13.232C121.942 12.08 124.118 11.504 126.582 11.504C129.014 11.504 131.126 12.064 132.918 13.184C134.742 14.272 136.15 15.792 137.142 17.744C138.134 19.696 138.63 21.92 138.63 24.416C138.63 24.928 138.47 25.344 138.15 25.664C137.83 25.952 137.414 26.096 136.902 26.096H117.51C117.702 27.824 118.23 29.36 119.094 30.704C119.958 32.016 121.094 33.056 122.502 33.824C123.91 34.56 125.51 34.928 127.302 34.928C128.454 34.928 129.606 34.736 130.758 34.352C131.942 33.936 132.886 33.424 133.59 32.816C133.942 32.528 134.342 32.384 134.79 32.384C135.238 32.352 135.622 32.464 135.942 32.72C136.358 33.104 136.566 33.52 136.566 33.968C136.598 34.416 136.422 34.8 136.038 35.12C134.982 36.016 133.638 36.768 132.006 37.376C130.374 37.952 128.806 38.24 127.302 38.24ZM126.582 14.816C124.118 14.816 122.086 15.584 120.486 17.12C118.886 18.624 117.926 20.592 117.606 23.024H135.174C134.918 20.592 134.022 18.624 132.486 17.12C130.982 15.584 129.014 14.816 126.582 14.816ZM154.051 38.24C152.163 38.24 150.291 37.92 148.435 37.28C146.579 36.64 145.075 35.68 143.923 34.4C143.571 34.016 143.427 33.584 143.491 33.104C143.555 32.624 143.795 32.208 144.211 31.856C144.659 31.536 145.123 31.408 145.603 31.472C146.083 31.536 146.483 31.744 146.803 32.096C147.571 32.992 148.579 33.68 149.827 34.16C151.107 34.64 152.515 34.88 154.051 34.88C156.419 34.88 158.131 34.48 159.187 33.68C160.243 32.848 160.787 31.856 160.819 30.704C160.819 29.552 160.275 28.608 159.187 27.872C158.099 27.104 156.307 26.512 153.811 26.096C150.579 25.584 148.211 24.688 146.707 23.408C145.203 22.128 144.451 20.608 144.451 18.848C144.451 17.216 144.883 15.856 145.747 14.768C146.611 13.68 147.763 12.864 149.203 12.32C150.643 11.776 152.227 11.504 153.955 11.504C156.099 11.504 157.939 11.872 159.475 12.608C161.043 13.344 162.307 14.336 163.267 15.584C163.587 16 163.715 16.432 163.651 16.88C163.587 17.328 163.331 17.696 162.883 17.984C162.499 18.208 162.051 18.288 161.539 18.224C161.059 18.128 160.643 17.888 160.291 17.504C158.723 15.712 156.579 14.816 153.859 14.816C152.099 14.816 150.691 15.184 149.635 15.92C148.579 16.624 148.051 17.52 148.051 18.608C148.051 19.696 148.515 20.592 149.443 21.296C150.403 22 152.195 22.576 154.819 23.024C157.219 23.408 159.107 23.984 160.483 24.752C161.891 25.488 162.883 26.368 163.459 27.392C164.067 28.384 164.371 29.472 164.371 30.656C164.371 32.16 163.923 33.488 163.027 34.64C162.163 35.76 160.947 36.64 159.379 37.28C157.843 37.92 156.067 38.24 154.051 38.24ZM179.926 38.24C178.038 38.24 176.166 37.92 174.31 37.28C172.454 36.64 170.95 35.68 169.798 34.4C169.446 34.016 169.302 33.584 169.366 33.104C169.43 32.624 169.67 32.208 170.086 31.856C170.534 31.536 170.998 31.408 171.478 31.472C171.958 31.536 172.358 31.744 172.678 32.096C173.446 32.992 174.454 33.68 175.702 34.16C176.982 34.64 178.39 34.88 179.926 34.88C182.294 34.88 184.006 34.48 185.062 33.68C186.118 32.848 186.662 31.856 186.694 30.704C186.694 29.552 186.15 28.608 185.062 27.872C183.974 27.104 182.182 26.512 179.686 26.096C176.454 25.584 174.086 24.688 172.582 23.408C171.078 22.128 170.326 20.608 170.326 18.848C170.326 17.216 170.758 15.856 171.622 14.768C172.486 13.68 173.638 12.864 175.078 12.32C176.518 11.776 178.102 11.504 179.83 11.504C181.974 11.504 183.814 11.872 185.35 12.608C186.918 13.344 188.182 14.336 189.142 15.584C189.462 16 189.59 16.432 189.526 16.88C189.462 17.328 189.206 17.696 188.758 17.984C188.374 18.208 187.926 18.288 187.414 18.224C186.934 18.128 186.518 17.888 186.166 17.504C184.598 15.712 182.454 14.816 179.734 14.816C177.974 14.816 176.566 15.184 175.51 15.92C174.454 16.624 173.926 17.52 173.926 18.608C173.926 19.696 174.39 20.592 175.318 21.296C176.278 22 178.07 22.576 180.694 23.024C183.094 23.408 184.982 23.984 186.358 24.752C187.766 25.488 188.758 26.368 189.334 27.392C189.942 28.384 190.246 29.472 190.246 30.656C190.246 32.16 189.798 33.488 188.902 34.64C188.038 35.76 186.822 36.64 185.254 37.28C183.718 37.92 181.942 38.24 179.926 38.24Z" fill="#277B77" fill-opacity="0.1"/>
</svg>
