<svg width="553" height="252" viewBox="0 0 553 252" fill="none" xmlns="http://www.w3.org/2000/svg">
<rect x="1" y="206" width="10" height="10" rx="5" fill="#C4C4C4" fill-opacity="0.25"/>
<rect y="188" width="10" height="10" rx="5" fill="#C4C4C4" fill-opacity="0.25"/>
<rect x="19" y="206" width="10" height="10" rx="5" fill="#C4C4C4" fill-opacity="0.25"/>
<rect x="18" y="188" width="10" height="10" rx="5" fill="#C4C4C4" fill-opacity="0.25"/>
<rect x="1" y="242" width="10" height="10" rx="5" fill="#C4C4C4" fill-opacity="0.25"/>
<rect y="224" width="10" height="10" rx="5" fill="#C4C4C4" fill-opacity="0.25"/>
<rect x="19" y="242" width="10" height="10" rx="5" fill="#C4C4C4" fill-opacity="0.25"/>
<rect x="18" y="224" width="10" height="10" rx="5" fill="#C4C4C4" fill-opacity="0.25"/>
<rect x="38" y="242" width="10" height="10" rx="5" fill="#C4C4C4" fill-opacity="0.25"/>
<rect x="37" y="224" width="10" height="10" rx="5" fill="#C4C4C4" fill-opacity="0.25"/>
<rect x="56" y="242" width="10" height="10" rx="5" fill="#C4C4C4" fill-opacity="0.25"/>
<rect x="55" y="224" width="10" height="10" rx="5" fill="#C4C4C4" fill-opacity="0.25"/>
<rect x="552" y="46" width="10" height="10" rx="5" transform="rotate(-180 552 46)" fill="#C4C4C4" fill-opacity="0.25"/>
<rect x="553" y="64" width="10" height="10" rx="5" transform="rotate(-180 553 64)" fill="#C4C4C4" fill-opacity="0.25"/>
<rect x="534" y="46" width="10" height="10" rx="5" transform="rotate(-180 534 46)" fill="#C4C4C4" fill-opacity="0.25"/>
<rect x="535" y="64" width="10" height="10" rx="5" transform="rotate(-180 535 64)" fill="#C4C4C4" fill-opacity="0.25"/>
<rect x="552" y="10" width="10" height="10" rx="5" transform="rotate(-180 552 10)" fill="#C4C4C4" fill-opacity="0.25"/>
<rect x="553" y="28" width="10" height="10" rx="5" transform="rotate(-180 553 28)" fill="#C4C4C4" fill-opacity="0.25"/>
<rect x="534" y="10" width="10" height="10" rx="5" transform="rotate(-180 534 10)" fill="#C4C4C4" fill-opacity="0.25"/>
<rect x="535" y="28" width="10" height="10" rx="5" transform="rotate(-180 535 28)" fill="#C4C4C4" fill-opacity="0.25"/>
<rect x="515" y="10" width="10" height="10" rx="5" transform="rotate(-180 515 10)" fill="#C4C4C4" fill-opacity="0.25"/>
<rect x="516" y="28" width="10" height="10" rx="5" transform="rotate(-180 516 28)" fill="#C4C4C4" fill-opacity="0.25"/>
<rect x="497" y="10" width="10" height="10" rx="5" transform="rotate(-180 497 10)" fill="#C4C4C4" fill-opacity="0.25"/>
<rect x="498" y="28" width="10" height="10" rx="5" transform="rotate(-180 498 28)" fill="#C4C4C4" fill-opacity="0.25"/>
</svg>
