<svg width="346" height="157" viewBox="0 0 346 157" fill="none" xmlns="http://www.w3.org/2000/svg">
<rect x="0.54541" y="131.125" width="5.45455" height="5.625" rx="2.72727" fill="#C4C4C4" fill-opacity="0.25"/>
<rect y="121" width="5.45455" height="5.625" rx="2.72727" fill="#C4C4C4" fill-opacity="0.25"/>
<rect x="10.3636" y="131.125" width="5.45455" height="5.625" rx="2.72727" fill="#C4C4C4" fill-opacity="0.25"/>
<rect x="9.81824" y="121" width="5.45455" height="5.625" rx="2.72727" fill="#C4C4C4" fill-opacity="0.25"/>
<rect x="0.54541" y="151.375" width="5.45455" height="5.625" rx="2.72727" fill="#C4C4C4" fill-opacity="0.25"/>
<rect y="141.25" width="5.45455" height="5.625" rx="2.72727" fill="#C4C4C4" fill-opacity="0.25"/>
<rect x="10.3636" y="151.375" width="5.45455" height="5.625" rx="2.72727" fill="#C4C4C4" fill-opacity="0.25"/>
<rect x="9.81824" y="141.25" width="5.45455" height="5.625" rx="2.72727" fill="#C4C4C4" fill-opacity="0.25"/>
<rect x="20.7273" y="151.375" width="5.45455" height="5.625" rx="2.72727" fill="#C4C4C4" fill-opacity="0.25"/>
<rect x="20.1819" y="141.25" width="5.45455" height="5.625" rx="2.72727" fill="#C4C4C4" fill-opacity="0.25"/>
<rect x="30.5455" y="151.375" width="5.45455" height="5.625" rx="2.72727" fill="#C4C4C4" fill-opacity="0.25"/>
<rect x="30" y="141.25" width="5.45455" height="5.625" rx="2.72727" fill="#C4C4C4" fill-opacity="0.25"/>
<rect x="345.455" y="25.875" width="5.45455" height="5.625" rx="2.72727" transform="rotate(-180 345.455 25.875)" fill="#C4C4C4" fill-opacity="0.25"/>
<rect x="346" y="36" width="5.45455" height="5.625" rx="2.72727" transform="rotate(-180 346 36)" fill="#C4C4C4" fill-opacity="0.25"/>
<rect x="335.636" y="25.875" width="5.45455" height="5.625" rx="2.72727" transform="rotate(-180 335.636 25.875)" fill="#C4C4C4" fill-opacity="0.25"/>
<rect x="336.182" y="36" width="5.45455" height="5.625" rx="2.72727" transform="rotate(-180 336.182 36)" fill="#C4C4C4" fill-opacity="0.25"/>
<rect x="345.455" y="5.625" width="5.45455" height="5.625" rx="2.72727" transform="rotate(-180 345.455 5.625)" fill="#C4C4C4" fill-opacity="0.25"/>
<rect x="346" y="15.75" width="5.45455" height="5.625" rx="2.72727" transform="rotate(-180 346 15.75)" fill="#C4C4C4" fill-opacity="0.25"/>
<rect x="335.636" y="5.625" width="5.45455" height="5.625" rx="2.72727" transform="rotate(-180 335.636 5.625)" fill="#C4C4C4" fill-opacity="0.25"/>
<rect x="336.182" y="15.75" width="5.45455" height="5.625" rx="2.72727" transform="rotate(-180 336.182 15.75)" fill="#C4C4C4" fill-opacity="0.25"/>
<rect x="325.273" y="5.625" width="5.45455" height="5.625" rx="2.72727" transform="rotate(-180 325.273 5.625)" fill="#C4C4C4" fill-opacity="0.25"/>
<rect x="325.818" y="15.75" width="5.45455" height="5.625" rx="2.72727" transform="rotate(-180 325.818 15.75)" fill="#C4C4C4" fill-opacity="0.25"/>
<rect x="315.455" y="5.625" width="5.45455" height="5.625" rx="2.72727" transform="rotate(-180 315.455 5.625)" fill="#C4C4C4" fill-opacity="0.25"/>
<rect x="316" y="15.75" width="5.45455" height="5.625" rx="2.72727" transform="rotate(-180 316 15.75)" fill="#C4C4C4" fill-opacity="0.25"/>
</svg>
