<svg width="197" height="39" viewBox="0 0 197 39" fill="none" xmlns="http://www.w3.org/2000/svg">
<path d="M19.648 38.48C17.056 38.48 14.624 37.984 12.352 36.992C10.112 36 8.128 34.624 6.4 32.864C4.704 31.072 3.376 29.024 2.416 26.72C1.456 24.384 0.976 21.888 0.976 19.232C0.976 16.608 1.44 14.144 2.368 11.84C3.328 9.504 4.656 7.456 6.352 5.696C8.08 3.936 10.064 2.56 12.304 1.568C14.576 0.543999 17.024 0.0319996 19.648 0.0319996C21.952 0.0319996 24.048 0.367999 25.936 1.04C27.824 1.712 29.648 2.784 31.408 4.256C31.824 4.576 32 4.992 31.936 5.504C31.872 5.984 31.632 6.32 31.216 6.512C31.12 6.896 30.816 7.136 30.304 7.232C29.824 7.328 29.344 7.184 28.864 6.8C27.616 5.712 26.256 4.912 24.784 4.4C23.312 3.856 21.6 3.584 19.648 3.584C17.568 3.584 15.616 4 13.792 4.832C12 5.664 10.416 6.8 9.04 8.24C7.664 9.68 6.576 11.344 5.776 13.232C5.008 15.12 4.624 17.12 4.624 19.232C4.624 21.408 5.008 23.44 5.776 25.328C6.576 27.216 7.664 28.88 9.04 30.32C10.416 31.76 12 32.896 13.792 33.728C15.616 34.528 17.568 34.928 19.648 34.928C23.104 34.928 26.256 33.808 29.104 31.568C29.68 31.12 30.288 31.056 30.928 31.376C31.6 31.696 31.936 32.24 31.936 33.008C31.936 33.52 31.76 33.968 31.408 34.352C29.776 35.856 27.952 36.928 25.936 37.568C23.92 38.176 21.824 38.48 19.648 38.48ZM49.3814 38.24C46.8214 38.24 44.5334 37.664 42.5174 36.512C40.5014 35.36 38.9174 33.776 37.7654 31.76C36.6134 29.744 36.0374 27.456 36.0374 24.896C36.0374 22.304 36.6134 20 37.7654 17.984C38.9174 15.968 40.5014 14.384 42.5174 13.232C44.5334 12.08 46.8214 11.504 49.3814 11.504C51.9414 11.504 54.2134 12.08 56.1974 13.232C58.2134 14.384 59.7974 15.968 60.9494 17.984C62.1014 20 62.6934 22.304 62.7254 24.896C62.7254 27.456 62.1334 29.744 60.9494 31.76C59.7974 33.776 58.2134 35.36 56.1974 36.512C54.2134 37.664 51.9414 38.24 49.3814 38.24ZM49.3814 34.88C51.2374 34.88 52.9014 34.448 54.3734 33.584C55.8454 32.72 56.9974 31.536 57.8294 30.032C58.6614 28.528 59.0774 26.816 59.0774 24.896C59.0774 22.976 58.6614 21.264 57.8294 19.76C56.9974 18.224 55.8454 17.024 54.3734 16.16C52.9014 15.296 51.2374 14.864 49.3814 14.864C47.5254 14.864 45.8614 15.296 44.3894 16.16C42.9174 17.024 41.7494 18.224 40.8854 19.76C40.0534 21.264 39.6374 22.976 39.6374 24.896C39.6374 26.816 40.0534 28.528 40.8854 30.032C41.7494 31.536 42.9174 32.72 44.3894 33.584C45.8614 34.448 47.5254 34.88 49.3814 34.88ZM71.7858 38C71.2098 38 70.7458 37.84 70.3938 37.52C70.0738 37.168 69.9138 36.72 69.9138 36.176V13.616C69.9138 13.04 70.0738 12.592 70.3938 12.272C70.7458 11.92 71.2098 11.744 71.7858 11.744C72.3298 11.744 72.7618 11.92 73.0818 12.272C73.4338 12.592 73.6098 13.04 73.6098 13.616V15.248C74.6338 14.064 75.8978 13.136 77.4018 12.464C78.9378 11.792 80.5858 11.456 82.3458 11.456C84.6178 11.456 86.6498 11.936 88.4418 12.896C90.2338 13.824 91.6418 15.2 92.6658 17.024C93.7218 18.848 94.2498 21.072 94.2498 23.696V36.176C94.2498 36.688 94.0738 37.12 93.7218 37.472C93.3698 37.824 92.9378 38 92.4258 38C91.8818 38 91.4338 37.824 91.0818 37.472C90.7298 37.12 90.5538 36.688 90.5538 36.176V23.696C90.5538 20.72 89.7218 18.528 88.0578 17.12C86.4258 15.68 84.3938 14.96 81.9618 14.96C80.3938 14.96 78.9698 15.264 77.6898 15.872C76.4418 16.48 75.4498 17.312 74.7138 18.368C73.9778 19.424 73.6098 20.624 73.6098 21.968V36.176C73.6098 36.72 73.4338 37.168 73.0818 37.52C72.7618 37.84 72.3298 38 71.7858 38ZM112.67 38C110.974 38 109.454 37.6 108.11 36.8C106.798 36 105.758 34.912 104.99 33.536C104.222 32.128 103.838 30.528 103.838 28.736V15.92H100.718C100.238 15.92 99.8381 15.776 99.5181 15.488C99.1981 15.168 99.0381 14.784 99.0381 14.336C99.0381 13.856 99.1981 13.472 99.5181 13.184C99.8381 12.864 100.238 12.704 100.718 12.704H103.838V5.264C103.838 4.72 103.998 4.272 104.318 3.92C104.67 3.568 105.118 3.392 105.662 3.392C106.206 3.392 106.654 3.568 107.006 3.92C107.358 4.272 107.534 4.72 107.534 5.264V12.704H112.958C113.438 12.704 113.838 12.864 114.158 13.184C114.478 13.472 114.638 13.856 114.638 14.336C114.638 14.784 114.478 15.168 114.158 15.488C113.838 15.776 113.438 15.92 112.958 15.92H107.534V28.736C107.534 30.368 108.014 31.712 108.974 32.768C109.934 33.792 111.166 34.304 112.67 34.304H113.966C114.478 34.304 114.894 34.48 115.214 34.832C115.534 35.184 115.694 35.632 115.694 36.176C115.694 36.72 115.502 37.168 115.118 37.52C114.734 37.84 114.254 38 113.678 38H112.67ZM133.279 38.24C130.815 38.24 128.607 37.664 126.655 36.512C124.703 35.328 123.151 33.728 121.999 31.712C120.879 29.696 120.319 27.424 120.319 24.896C120.319 22.336 120.895 20.048 122.047 18.032C123.231 16.016 124.831 14.432 126.847 13.28C128.863 12.096 131.135 11.504 133.663 11.504C136.191 11.504 138.447 12.096 140.431 13.28C142.447 14.432 144.031 16.016 145.183 18.032C146.367 20.048 146.975 22.336 147.007 24.896V36.176C147.007 36.72 146.831 37.168 146.479 37.52C146.127 37.84 145.679 38 145.135 38C144.591 38 144.143 37.84 143.791 37.52C143.439 37.168 143.263 36.72 143.263 36.176V33.248C142.175 34.784 140.767 36 139.039 36.896C137.311 37.792 135.391 38.24 133.279 38.24ZM133.663 34.88C135.519 34.88 137.167 34.448 138.607 33.584C140.079 32.72 141.231 31.536 142.063 30.032C142.927 28.496 143.359 26.784 143.359 24.896C143.359 22.976 142.927 21.264 142.063 19.76C141.231 18.256 140.079 17.072 138.607 16.208C137.167 15.312 135.519 14.864 133.663 14.864C131.839 14.864 130.191 15.312 128.719 16.208C127.247 17.072 126.079 18.256 125.215 19.76C124.351 21.264 123.919 22.976 123.919 24.896C123.919 26.784 124.351 28.496 125.215 30.032C126.079 31.536 127.247 32.72 128.719 33.584C130.191 34.448 131.839 34.88 133.663 34.88ZM165.907 38.24C163.379 38.24 161.123 37.664 159.139 36.512C157.187 35.328 155.635 33.728 154.483 31.712C153.363 29.696 152.803 27.424 152.803 24.896C152.803 22.336 153.347 20.048 154.435 18.032C155.523 16.016 157.011 14.432 158.899 13.28C160.787 12.096 162.963 11.504 165.427 11.504C169.427 11.504 172.675 13.04 175.171 16.112C175.523 16.496 175.651 16.912 175.555 17.36C175.459 17.776 175.187 18.144 174.739 18.464C174.387 18.72 173.987 18.816 173.539 18.752C173.123 18.656 172.755 18.416 172.435 18.032C170.579 15.92 168.243 14.864 165.427 14.864C163.635 14.864 162.051 15.296 160.675 16.16C159.331 17.024 158.275 18.208 157.507 19.712C156.771 21.216 156.403 22.944 156.403 24.896C156.403 26.816 156.803 28.528 157.603 30.032C158.403 31.536 159.523 32.72 160.963 33.584C162.403 34.448 164.051 34.88 165.907 34.88C168.467 34.88 170.531 34.192 172.099 32.816C172.483 32.496 172.883 32.32 173.299 32.288C173.715 32.256 174.099 32.384 174.451 32.672C174.835 33.024 175.043 33.424 175.075 33.872C175.139 34.32 174.995 34.704 174.643 35.024C172.307 37.168 169.395 38.24 165.907 38.24ZM193.061 38C191.365 38 189.845 37.6 188.501 36.8C187.189 36 186.149 34.912 185.381 33.536C184.613 32.128 184.229 30.528 184.229 28.736V15.92H181.109C180.629 15.92 180.229 15.776 179.909 15.488C179.589 15.168 179.429 14.784 179.429 14.336C179.429 13.856 179.589 13.472 179.909 13.184C180.229 12.864 180.629 12.704 181.109 12.704H184.229V5.264C184.229 4.72 184.389 4.272 184.709 3.92C185.061 3.568 185.509 3.392 186.053 3.392C186.597 3.392 187.045 3.568 187.397 3.92C187.749 4.272 187.925 4.72 187.925 5.264V12.704H193.349C193.829 12.704 194.229 12.864 194.549 13.184C194.869 13.472 195.029 13.856 195.029 14.336C195.029 14.784 194.869 15.168 194.549 15.488C194.229 15.776 193.829 15.92 193.349 15.92H187.925V28.736C187.925 30.368 188.405 31.712 189.365 32.768C190.325 33.792 191.557 34.304 193.061 34.304H194.357C194.869 34.304 195.285 34.48 195.605 34.832C195.925 35.184 196.085 35.632 196.085 36.176C196.085 36.72 195.893 37.168 195.509 37.52C195.125 37.84 194.645 38 194.069 38H193.061Z" fill="#277B77" fill-opacity="0.1"/>
</svg>
