<svg width="24" height="25" viewBox="0 0 24 25" fill="none" xmlns="http://www.w3.org/2000/svg">
<g clip-path="url(#clip0_216:99)">
<path d="M16 22.4999V18.6299C16.0375 18.1531 15.9731 17.6737 15.811 17.2237C15.6489 16.7737 15.3929 16.3634 15.06 16.0199C18.2 15.6699 21.5 14.4799 21.5 9.01994C21.4997 7.62376 20.9627 6.28114 20 5.26994C20.4559 4.04844 20.4236 2.69829 19.91 1.49994C19.91 1.49994 18.73 1.14994 16 2.97994C13.708 2.35876 11.292 2.35876 9 2.97994C6.27 1.14994 5.09 1.49994 5.09 1.49994C4.57638 2.69829 4.54414 4.04844 5 5.26994C4.03013 6.28864 3.49252 7.6434 3.5 9.04994C3.5 14.4699 6.8 15.6599 9.94 16.0499C9.611 16.3899 9.35726 16.7953 9.19531 17.2399C9.03335 17.6844 8.96681 18.158 9 18.6299V22.4999M9 19.4999C4 20.9999 4 16.9999 2 16.4999L9 19.4999Z" stroke="#C4C4C4" stroke-width="2" stroke-linecap="round" stroke-linejoin="round"/>
</g>
<defs>
<clipPath id="clip0_216:99">
<rect width="24" height="24" fill="white" transform="translate(0 0.5)"/>
</clipPath>
</defs>
</svg>
