<svg width="48" height="48" viewBox="0 0 48 48" fill="none" xmlns="http://www.w3.org/2000/svg">
<path d="M24 41.5201C23.52 41.5201 23.0688 41.3953 22.6464 41.1649L18.3648 38.6209C17.7216 38.2657 18.0384 38.1409 18.24 38.0737C19.1136 37.7857 19.2672 37.7185 20.1696 37.2001C20.2656 37.1329 20.3904 37.1713 20.496 37.2289L23.7792 39.1969C23.904 39.2641 24.0672 39.2641 24.1632 39.1969L37.008 31.7569C37.1328 31.6897 37.2 31.5649 37.2 31.4017V16.5697C37.2 16.4065 37.1328 16.2817 37.008 16.2145L24.1632 8.81286C24.0384 8.74566 23.8752 8.74566 23.7792 8.81286L10.9344 16.2145C10.8096 16.2817 10.7424 16.4353 10.7424 16.5697V31.4113C10.7424 31.5361 10.8096 31.6993 10.9344 31.7665L14.448 33.7921C16.3488 34.7617 17.5392 33.6289 17.5392 32.5057V17.8561C17.5392 17.6641 17.7024 17.4721 17.9232 17.4721H19.5648C19.7568 17.4721 19.9488 17.6353 19.9488 17.8561V32.5057C19.9488 35.0497 18.5664 36.5281 16.1472 36.5281C15.408 36.5281 14.832 36.5281 13.1904 35.7217L9.8016 33.7921C8.9664 33.3121 8.448 32.4097 8.448 31.4401V16.6081C8.448 15.6385 8.9664 14.7457 9.8016 14.2561L22.6464 6.81606C23.4528 6.36486 24.5472 6.36486 25.3536 6.81606L38.1984 14.2561C39.0336 14.7361 39.552 15.6385 39.552 16.6081V31.4497C39.552 32.4193 39.0336 33.3121 38.1984 33.8017L25.3536 41.2417C24.9312 41.4241 24.4512 41.5201 24 41.5201ZM27.9552 31.3153C22.32 31.3153 21.1584 28.7425 21.1584 26.5537C21.1584 26.3617 21.3216 26.1697 21.5424 26.1697H23.232C23.424 26.1697 23.5872 26.2945 23.5872 26.4961C23.8464 28.2049 24.5856 29.0401 27.9936 29.0401C30.7008 29.0401 31.8528 28.4257 31.8528 26.9761C31.8528 26.1409 31.5264 25.5265 27.312 25.1137C23.7984 24.7585 21.6096 23.9905 21.6096 21.1873C21.6096 18.5761 23.7984 17.0305 27.4656 17.0305C31.584 17.0305 33.6096 18.4513 33.8688 21.5329C33.8688 21.6289 33.84 21.7249 33.7728 21.8209C33.7056 21.8881 33.6096 21.9457 33.5136 21.9457H31.8432C31.68 21.9457 31.5168 21.8209 31.488 21.6577C31.104 19.8913 30.1056 19.3057 27.4656 19.3057C24.5088 19.3057 24.1536 20.3329 24.1536 21.1105C24.1536 22.0417 24.576 22.3297 28.56 22.8481C32.5152 23.3665 34.3872 24.1057 34.3872 26.8705C34.368 29.7025 32.0448 31.3153 27.9552 31.3153Z" fill="#539E43"/>
</svg>
