<svg width="205" height="39" viewBox="0 0 205 39" fill="none" xmlns="http://www.w3.org/2000/svg">
<path d="M2.672 38C2.128 38 1.68 37.824 1.328 37.472C0.976 37.12 0.8 36.672 0.8 36.128V2.384C0.8 1.84 0.976 1.392 1.328 1.04C1.68 0.687999 2.128 0.511999 2.672 0.511999H12.272C14.64 0.511999 16.736 1.04 18.56 2.096C20.384 3.12 21.808 4.544 22.832 6.368C23.856 8.192 24.368 10.304 24.368 12.704C24.368 15.04 23.856 17.12 22.832 18.944C21.808 20.736 20.384 22.16 18.56 23.216C16.736 24.24 14.64 24.752 12.272 24.752H4.544V36.128C4.544 36.672 4.368 37.12 4.016 37.472C3.664 37.824 3.216 38 2.672 38ZM4.544 21.152H12.272C13.904 21.152 15.36 20.8 16.64 20.096C17.92 19.36 18.912 18.352 19.616 17.072C20.352 15.792 20.72 14.336 20.72 12.704C20.72 11.008 20.352 9.52 19.616 8.24C18.912 6.96 17.92 5.952 16.64 5.216C15.36 4.48 13.904 4.112 12.272 4.112H4.544V21.152ZM40.7251 38.24C38.1651 38.24 35.8771 37.664 33.8611 36.512C31.8451 35.36 30.2611 33.776 29.1091 31.76C27.9571 29.744 27.3811 27.456 27.3811 24.896C27.3811 22.304 27.9571 20 29.1091 17.984C30.2611 15.968 31.8451 14.384 33.8611 13.232C35.8771 12.08 38.1651 11.504 40.7251 11.504C43.2851 11.504 45.5571 12.08 47.5411 13.232C49.5571 14.384 51.1411 15.968 52.2931 17.984C53.4451 20 54.0371 22.304 54.0691 24.896C54.0691 27.456 53.4771 29.744 52.2931 31.76C51.1411 33.776 49.5571 35.36 47.5411 36.512C45.5571 37.664 43.2851 38.24 40.7251 38.24ZM40.7251 34.88C42.5811 34.88 44.2451 34.448 45.7171 33.584C47.1891 32.72 48.3411 31.536 49.1731 30.032C50.0051 28.528 50.4211 26.816 50.4211 24.896C50.4211 22.976 50.0051 21.264 49.1731 19.76C48.3411 18.224 47.1891 17.024 45.7171 16.16C44.2451 15.296 42.5811 14.864 40.7251 14.864C38.8691 14.864 37.2051 15.296 35.7331 16.16C34.2611 17.024 33.0931 18.224 32.2291 19.76C31.3971 21.264 30.9811 22.976 30.9811 24.896C30.9811 26.816 31.3971 28.528 32.2291 30.032C33.0931 31.536 34.2611 32.72 35.7331 33.584C37.2051 34.448 38.8691 34.88 40.7251 34.88ZM63.0815 38C61.8655 38 61.2575 37.392 61.2575 36.176V13.568C61.2575 12.352 61.8655 11.744 63.0815 11.744C64.2975 11.744 64.9055 12.352 64.9055 13.568V15.632C65.8655 14.352 67.0495 13.344 68.4575 12.608C69.8655 11.84 71.4175 11.456 73.1135 11.456C74.5855 11.456 75.7215 11.664 76.5215 12.08C77.3215 12.496 77.6255 13.104 77.4335 13.904C77.2735 14.64 76.8895 15.024 76.2815 15.056C75.7055 15.056 75.0175 15.024 74.2175 14.96C72.4255 14.8 70.8255 14.992 69.4175 15.536C68.0415 16.048 66.9375 16.848 66.1055 17.936C65.3055 19.024 64.9055 20.32 64.9055 21.824V36.176C64.9055 37.392 64.2975 38 63.0815 38ZM93.5139 38C91.8179 38 90.2979 37.6 88.9539 36.8C87.6419 36 86.6019 34.912 85.8339 33.536C85.0659 32.128 84.6819 30.528 84.6819 28.736V15.92H81.5619C81.0819 15.92 80.6819 15.776 80.3619 15.488C80.0419 15.168 79.8819 14.784 79.8819 14.336C79.8819 13.856 80.0419 13.472 80.3619 13.184C80.6819 12.864 81.0819 12.704 81.5619 12.704H84.6819V5.264C84.6819 4.72 84.8419 4.272 85.1619 3.92C85.5139 3.568 85.9619 3.392 86.5059 3.392C87.0499 3.392 87.4979 3.568 87.8499 3.92C88.2019 4.272 88.3779 4.72 88.3779 5.264V12.704H93.8019C94.2819 12.704 94.6819 12.864 95.0019 13.184C95.3219 13.472 95.4819 13.856 95.4819 14.336C95.4819 14.784 95.3219 15.168 95.0019 15.488C94.6819 15.776 94.2819 15.92 93.8019 15.92H88.3779V28.736C88.3779 30.368 88.8579 31.712 89.8179 32.768C90.7779 33.792 92.0099 34.304 93.5139 34.304H94.8099C95.3219 34.304 95.7379 34.48 96.0579 34.832C96.3779 35.184 96.5379 35.632 96.5379 36.176C96.5379 36.72 96.3459 37.168 95.9619 37.52C95.5779 37.84 95.0979 38 94.5219 38H93.5139ZM105.818 38C105.338 38 104.922 37.84 104.57 37.52C104.218 37.168 104.042 36.704 104.042 36.128V15.92H100.97C100.458 15.92 100.042 15.776 99.7224 15.488C99.4344 15.168 99.2904 14.784 99.2904 14.336C99.2904 13.856 99.4344 13.472 99.7224 13.184C100.042 12.864 100.458 12.704 100.97 12.704H104.042V11.792C104.042 8.432 104.906 5.712 106.634 3.632C108.362 1.552 110.858 0.511999 114.122 0.511999C114.666 0.511999 115.114 0.671999 115.466 0.991999C115.818 1.312 115.994 1.712 115.994 2.192C115.994 2.672 115.818 3.072 115.466 3.392C115.114 3.712 114.666 3.872 114.122 3.872C111.946 3.872 110.33 4.608 109.274 6.08C108.25 7.52 107.738 9.36 107.738 11.6V12.704H113.498C114.01 12.704 114.41 12.864 114.698 13.184C115.018 13.472 115.178 13.856 115.178 14.336C115.178 14.784 115.018 15.168 114.698 15.488C114.41 15.776 114.01 15.92 113.498 15.92H107.738V36.128C107.738 36.704 107.562 37.168 107.21 37.52C106.89 37.84 106.426 38 105.818 38ZM131.147 38.24C128.587 38.24 126.299 37.664 124.283 36.512C122.267 35.36 120.683 33.776 119.531 31.76C118.379 29.744 117.803 27.456 117.803 24.896C117.803 22.304 118.379 20 119.531 17.984C120.683 15.968 122.267 14.384 124.283 13.232C126.299 12.08 128.587 11.504 131.147 11.504C133.707 11.504 135.979 12.08 137.963 13.232C139.979 14.384 141.563 15.968 142.715 17.984C143.867 20 144.459 22.304 144.491 24.896C144.491 27.456 143.899 29.744 142.715 31.76C141.563 33.776 139.979 35.36 137.963 36.512C135.979 37.664 133.707 38.24 131.147 38.24ZM131.147 34.88C133.003 34.88 134.667 34.448 136.139 33.584C137.611 32.72 138.763 31.536 139.595 30.032C140.427 28.528 140.843 26.816 140.843 24.896C140.843 22.976 140.427 21.264 139.595 19.76C138.763 18.224 137.611 17.024 136.139 16.16C134.667 15.296 133.003 14.864 131.147 14.864C129.291 14.864 127.627 15.296 126.155 16.16C124.683 17.024 123.515 18.224 122.651 19.76C121.819 21.264 121.403 22.976 121.403 24.896C121.403 26.816 121.819 28.528 122.651 30.032C123.515 31.536 124.683 32.72 126.155 33.584C127.627 34.448 129.291 34.88 131.147 34.88ZM157.343 38C155.423 38 153.839 37.232 152.591 35.696C151.343 34.128 150.719 32.128 150.719 29.696V2.336C150.719 1.792 150.879 1.36 151.199 1.04C151.551 0.687999 151.999 0.511999 152.543 0.511999C153.087 0.511999 153.519 0.687999 153.839 1.04C154.191 1.36 154.367 1.792 154.367 2.336V29.696C154.367 31.072 154.639 32.192 155.183 33.056C155.759 33.92 156.479 34.352 157.343 34.352H158.543C159.023 34.352 159.407 34.528 159.695 34.88C159.983 35.2 160.127 35.632 160.127 36.176C160.127 36.72 159.919 37.168 159.503 37.52C159.119 37.84 158.607 38 157.967 38H157.343ZM167.866 38C167.29 38 166.826 37.84 166.474 37.52C166.154 37.168 165.994 36.704 165.994 36.128V13.616C165.994 13.04 166.154 12.592 166.474 12.272C166.826 11.92 167.29 11.744 167.866 11.744C168.41 11.744 168.842 11.92 169.162 12.272C169.514 12.592 169.69 13.04 169.69 13.616V36.128C169.69 36.704 169.514 37.168 169.162 37.52C168.842 37.84 168.41 38 167.866 38ZM167.818 6.752C167.114 6.752 166.506 6.496 165.994 5.984C165.482 5.472 165.226 4.848 165.226 4.112C165.226 3.312 165.482 2.688 165.994 2.24C166.538 1.76 167.162 1.52 167.866 1.52C168.538 1.52 169.13 1.76 169.642 2.24C170.186 2.688 170.458 3.312 170.458 4.112C170.458 4.848 170.202 5.472 169.69 5.984C169.178 6.496 168.554 6.752 167.818 6.752ZM191.053 38.24C188.493 38.24 186.205 37.664 184.189 36.512C182.173 35.36 180.589 33.776 179.437 31.76C178.285 29.744 177.709 27.456 177.709 24.896C177.709 22.304 178.285 20 179.437 17.984C180.589 15.968 182.173 14.384 184.189 13.232C186.205 12.08 188.493 11.504 191.053 11.504C193.613 11.504 195.885 12.08 197.869 13.232C199.885 14.384 201.469 15.968 202.621 17.984C203.773 20 204.365 22.304 204.397 24.896C204.397 27.456 203.805 29.744 202.621 31.76C201.469 33.776 199.885 35.36 197.869 36.512C195.885 37.664 193.613 38.24 191.053 38.24ZM191.053 34.88C192.909 34.88 194.573 34.448 196.045 33.584C197.517 32.72 198.669 31.536 199.501 30.032C200.333 28.528 200.749 26.816 200.749 24.896C200.749 22.976 200.333 21.264 199.501 19.76C198.669 18.224 197.517 17.024 196.045 16.16C194.573 15.296 192.909 14.864 191.053 14.864C189.197 14.864 187.533 15.296 186.061 16.16C184.589 17.024 183.421 18.224 182.557 19.76C181.725 21.264 181.309 22.976 181.309 24.896C181.309 26.816 181.725 28.528 182.557 30.032C183.421 31.536 184.589 32.72 186.061 33.584C187.533 34.448 189.197 34.88 191.053 34.88Z" fill="#277B77" fill-opacity="0.1"/>
</svg>
