<svg width="293" height="77" viewBox="0 0 293 77" fill="none" xmlns="http://www.w3.org/2000/svg">
<path d="M4.344 76C3.256 76 2.36 75.648 1.656 74.944C0.952 74.24 0.6 73.344 0.6 72.256V4.768C0.6 3.67999 0.952 2.78399 1.656 2.08C2.36 1.376 3.256 1.024 4.344 1.024H23.544C28.28 1.024 32.472 2.08 36.12 4.192C39.768 6.24 42.616 9.088 44.664 12.736C46.712 16.384 47.736 20.608 47.736 25.408C47.736 30.08 46.712 34.24 44.664 37.888C42.616 41.472 39.768 44.32 36.12 46.432C32.472 48.48 28.28 49.504 23.544 49.504H8.088V72.256C8.088 73.344 7.736 74.24 7.032 74.944C6.328 75.648 5.432 76 4.344 76ZM8.088 42.304H23.544C26.808 42.304 29.72 41.6 32.28 40.192C34.84 38.72 36.824 36.704 38.232 34.144C39.704 31.584 40.44 28.672 40.44 25.408C40.44 22.016 39.704 19.04 38.232 16.48C36.824 13.92 34.84 11.904 32.28 10.432C29.72 8.96 26.808 8.224 23.544 8.224H8.088V42.304ZM62.0693 76C59.6373 76 58.4213 74.784 58.4213 72.352V27.136C58.4213 24.704 59.6373 23.488 62.0693 23.488C64.5013 23.488 65.7173 24.704 65.7173 27.136V31.264C67.6373 28.704 70.0053 26.688 72.8213 25.216C75.6373 23.68 78.7413 22.912 82.1333 22.912C85.0773 22.912 87.3493 23.328 88.9493 24.16C90.5493 24.992 91.1573 26.208 90.7733 27.808C90.4533 29.28 89.6853 30.048 88.4693 30.112C87.3173 30.112 85.9413 30.048 84.3413 29.92C80.7573 29.6 77.5573 29.984 74.7413 31.072C71.9893 32.096 69.7813 33.696 68.1173 35.872C66.5173 38.048 65.7173 40.64 65.7173 43.648V72.352C65.7173 74.784 64.5013 76 62.0693 76ZM122.45 76.48C117.33 76.48 112.754 75.328 108.722 73.024C104.69 70.72 101.522 67.552 99.2183 63.52C96.9143 59.488 95.7623 54.912 95.7623 49.792C95.7623 44.608 96.9143 40 99.2183 35.968C101.522 31.936 104.69 28.768 108.722 26.464C112.754 24.16 117.33 23.008 122.45 23.008C127.57 23.008 132.114 24.16 136.082 26.464C140.114 28.768 143.282 31.936 145.586 35.968C147.89 40 149.074 44.608 149.138 49.792C149.138 54.912 147.954 59.488 145.586 63.52C143.282 67.552 140.114 70.72 136.082 73.024C132.114 75.328 127.57 76.48 122.45 76.48ZM122.45 69.76C126.162 69.76 129.49 68.896 132.434 67.168C135.378 65.44 137.682 63.072 139.346 60.064C141.01 57.056 141.842 53.632 141.842 49.792C141.842 45.952 141.01 42.528 139.346 39.52C137.682 36.448 135.378 34.048 132.434 32.32C129.49 30.592 126.162 29.728 122.45 29.728C118.738 29.728 115.41 30.592 112.466 32.32C109.522 34.048 107.186 36.448 105.458 39.52C103.794 42.528 102.962 45.952 102.962 49.792C102.962 53.632 103.794 57.056 105.458 60.064C107.186 63.072 109.522 65.44 112.466 67.168C115.41 68.896 118.738 69.76 122.45 69.76ZM170.139 76C169.115 76 168.251 75.648 167.547 74.944C166.843 74.24 166.491 73.344 166.491 72.256V31.84H160.347C159.323 31.84 158.491 31.552 157.851 30.976C157.275 30.336 156.987 29.568 156.987 28.672C156.987 27.712 157.275 26.944 157.851 26.368C158.491 25.728 159.323 25.408 160.347 25.408H166.491V23.008C166.491 18.72 167.227 14.912 168.699 11.584C170.235 8.256 172.667 5.632 175.995 3.712C179.323 1.728 183.771 0.735996 189.339 0.735996C191.899 0.735996 194.331 1.024 196.635 1.6C198.939 2.176 200.795 3.008 202.203 4.096C203.675 5.12 204.411 6.4 204.411 7.936C204.411 10.688 202.843 12.064 199.707 12.064C198.619 12.064 197.627 11.808 196.731 11.296C195.835 10.72 194.907 10.08 193.947 9.376C193.051 8.608 192.059 7.968 190.971 7.456C189.883 6.88 188.571 6.592 187.035 6.592C183.195 6.592 180.027 7.80799 177.531 10.24C175.099 12.608 173.883 16.864 173.883 23.008V25.408H185.499C186.459 25.408 187.259 25.728 187.899 26.368C188.539 26.944 188.859 27.712 188.859 28.672C188.859 29.568 188.539 30.336 187.899 30.976C187.259 31.552 186.459 31.84 185.499 31.84H173.883V72.256C173.883 73.344 173.531 74.24 172.827 74.944C172.123 75.648 171.227 76 170.139 76ZM199.899 76C198.747 76 197.819 75.68 197.115 75.04C196.475 74.336 196.155 73.408 196.155 72.256V27.232C196.155 26.08 196.475 25.184 197.115 24.544C197.819 23.84 198.747 23.488 199.899 23.488C200.987 23.488 201.851 23.84 202.491 24.544C203.195 25.184 203.547 26.08 203.547 27.232V72.256C203.547 73.408 203.195 74.336 202.491 75.04C201.851 75.68 200.987 76 199.899 76ZM233.062 76C229.222 76 226.054 74.464 223.558 71.392C221.062 68.256 219.814 64.256 219.814 59.392V4.672C219.814 3.584 220.134 2.72 220.774 2.08C221.478 1.376 222.374 1.024 223.462 1.024C224.55 1.024 225.414 1.376 226.054 2.08C226.758 2.72 227.11 3.584 227.11 4.672V59.392C227.11 62.144 227.654 64.384 228.742 66.112C229.894 67.84 231.334 68.704 233.062 68.704H235.462C236.422 68.704 237.19 69.056 237.766 69.76C238.342 70.4 238.63 71.264 238.63 72.352C238.63 73.44 238.214 74.336 237.382 75.04C236.614 75.68 235.59 76 234.31 76H233.062ZM269.729 76.48C264.545 76.48 259.937 75.36 255.905 73.12C251.937 70.816 248.801 67.648 246.497 63.616C244.257 59.584 243.137 54.976 243.137 49.792C243.137 44.544 244.193 39.936 246.305 35.968C248.481 31.936 251.457 28.768 255.233 26.464C259.009 24.16 263.361 23.008 268.289 23.008C273.153 23.008 277.377 24.128 280.961 26.368C284.609 28.544 287.425 31.584 289.409 35.488C291.393 39.392 292.385 43.84 292.385 48.832C292.385 49.856 292.065 50.688 291.425 51.328C290.785 51.904 289.953 52.192 288.929 52.192H250.145C250.529 55.648 251.585 58.72 253.313 61.408C255.041 64.032 257.313 66.112 260.129 67.648C262.945 69.12 266.145 69.856 269.729 69.856C272.033 69.856 274.337 69.472 276.641 68.704C279.009 67.872 280.897 66.848 282.305 65.632C283.009 65.056 283.809 64.768 284.705 64.768C285.601 64.704 286.369 64.928 287.009 65.44C287.841 66.208 288.257 67.04 288.257 67.936C288.321 68.832 287.969 69.6 287.201 70.24C285.089 72.032 282.401 73.536 279.137 74.752C275.873 75.904 272.737 76.48 269.729 76.48ZM268.289 29.632C263.361 29.632 259.297 31.168 256.097 34.24C252.897 37.248 250.977 41.184 250.337 46.048H285.473C284.961 41.184 283.169 37.248 280.097 34.24C277.089 31.168 273.153 29.632 268.289 29.632Z" fill="#277B77" fill-opacity="0.1"/>
</svg>
