<svg width="147" height="39" viewBox="0 0 147 39" fill="none" xmlns="http://www.w3.org/2000/svg">
<path d="M2.672 38C2.128 38 1.68 37.824 1.328 37.472C0.976 37.12 0.8 36.672 0.8 36.128V2.384C0.8 1.84 0.976 1.392 1.328 1.04C1.68 0.687999 2.128 0.511999 2.672 0.511999H12.272C14.64 0.511999 16.736 1.04 18.56 2.096C20.384 3.12 21.808 4.544 22.832 6.368C23.856 8.192 24.368 10.304 24.368 12.704C24.368 15.04 23.856 17.12 22.832 18.944C21.808 20.736 20.384 22.16 18.56 23.216C16.736 24.24 14.64 24.752 12.272 24.752H4.544V36.128C4.544 36.672 4.368 37.12 4.016 37.472C3.664 37.824 3.216 38 2.672 38ZM4.544 21.152H12.272C13.904 21.152 15.36 20.8 16.64 20.096C17.92 19.36 18.912 18.352 19.616 17.072C20.352 15.792 20.72 14.336 20.72 12.704C20.72 11.008 20.352 9.52 19.616 8.24C18.912 6.96 17.92 5.952 16.64 5.216C15.36 4.48 13.904 4.112 12.272 4.112H4.544V21.152ZM31.5346 38C30.3186 38 29.7106 37.392 29.7106 36.176V13.568C29.7106 12.352 30.3186 11.744 31.5346 11.744C32.7506 11.744 33.3586 12.352 33.3586 13.568V15.632C34.3186 14.352 35.5026 13.344 36.9106 12.608C38.3186 11.84 39.8706 11.456 41.5666 11.456C43.0386 11.456 44.1746 11.664 44.9746 12.08C45.7746 12.496 46.0786 13.104 45.8866 13.904C45.7266 14.64 45.3426 15.024 44.7346 15.056C44.1586 15.056 43.4706 15.024 42.6706 14.96C40.8786 14.8 39.2786 14.992 37.8706 15.536C36.4946 16.048 35.3906 16.848 34.5586 17.936C33.7586 19.024 33.3586 20.32 33.3586 21.824V36.176C33.3586 37.392 32.7506 38 31.5346 38ZM61.7251 38.24C59.1651 38.24 56.8771 37.664 54.8611 36.512C52.8451 35.36 51.2611 33.776 50.1091 31.76C48.9571 29.744 48.3811 27.456 48.3811 24.896C48.3811 22.304 48.9571 20 50.1091 17.984C51.2611 15.968 52.8451 14.384 54.8611 13.232C56.8771 12.08 59.1651 11.504 61.7251 11.504C64.2851 11.504 66.5571 12.08 68.5411 13.232C70.5571 14.384 72.1411 15.968 73.2931 17.984C74.4451 20 75.0371 22.304 75.0691 24.896C75.0691 27.456 74.4771 29.744 73.2931 31.76C72.1411 33.776 70.5571 35.36 68.5411 36.512C66.5571 37.664 64.2851 38.24 61.7251 38.24ZM61.7251 34.88C63.5811 34.88 65.2451 34.448 66.7171 33.584C68.1891 32.72 69.3411 31.536 70.1731 30.032C71.0051 28.528 71.4211 26.816 71.4211 24.896C71.4211 22.976 71.0051 21.264 70.1731 19.76C69.3411 18.224 68.1891 17.024 66.7171 16.16C65.2451 15.296 63.5811 14.864 61.7251 14.864C59.8691 14.864 58.2051 15.296 56.7331 16.16C55.2611 17.024 54.0931 18.224 53.2291 19.76C52.3971 21.264 51.9811 22.976 51.9811 24.896C51.9811 26.816 52.3971 28.528 53.2291 30.032C54.0931 31.536 55.2611 32.72 56.7331 33.584C58.2051 34.448 59.8691 34.88 61.7251 34.88ZM85.5695 38C85.0575 38 84.6255 37.824 84.2735 37.472C83.9215 37.12 83.7455 36.672 83.7455 36.128V15.92H80.6735C80.1615 15.92 79.7455 15.776 79.4255 15.488C79.1375 15.168 78.9935 14.784 78.9935 14.336C78.9935 13.856 79.1375 13.472 79.4255 13.184C79.7455 12.864 80.1615 12.704 80.6735 12.704H83.7455V11.504C83.7455 9.36 84.1135 7.456 84.8495 5.792C85.6175 4.128 86.8335 2.816 88.4975 1.856C90.1615 0.863998 92.3855 0.367998 95.1695 0.367998C96.4495 0.367998 97.6655 0.511998 98.8175 0.799998C99.9695 1.088 100.898 1.504 101.602 2.048C102.338 2.56 102.706 3.2 102.706 3.968C102.706 5.344 101.922 6.032 100.354 6.032C99.8095 6.032 99.3135 5.904 98.8655 5.648C98.4175 5.36 97.9535 5.04 97.4735 4.688C97.0255 4.304 96.5295 3.984 95.9855 3.728C95.4415 3.44 94.7855 3.296 94.0175 3.296C92.0975 3.296 90.5135 3.904 89.2655 5.12C88.0495 6.304 87.4415 8.432 87.4415 11.504V12.704H93.2495C93.7295 12.704 94.1295 12.864 94.4495 13.184C94.7695 13.472 94.9295 13.856 94.9295 14.336C94.9295 14.784 94.7695 15.168 94.4495 15.488C94.1295 15.776 93.7295 15.92 93.2495 15.92H87.4415V36.128C87.4415 36.672 87.2655 37.12 86.9135 37.472C86.5615 37.824 86.1135 38 85.5695 38ZM100.45 38C99.8735 38 99.4095 37.84 99.0575 37.52C98.7375 37.168 98.5775 36.704 98.5775 36.128V13.616C98.5775 13.04 98.7375 12.592 99.0575 12.272C99.4095 11.92 99.8735 11.744 100.45 11.744C100.994 11.744 101.426 11.92 101.746 12.272C102.098 12.592 102.274 13.04 102.274 13.616V36.128C102.274 36.704 102.098 37.168 101.746 37.52C101.426 37.84 100.994 38 100.45 38ZM117.031 38C115.111 38 113.527 37.232 112.279 35.696C111.031 34.128 110.407 32.128 110.407 29.696V2.336C110.407 1.792 110.567 1.36 110.887 1.04C111.239 0.687999 111.687 0.511999 112.231 0.511999C112.775 0.511999 113.207 0.687999 113.527 1.04C113.879 1.36 114.055 1.792 114.055 2.336V29.696C114.055 31.072 114.327 32.192 114.871 33.056C115.447 33.92 116.167 34.352 117.031 34.352H118.231C118.711 34.352 119.095 34.528 119.383 34.88C119.671 35.2 119.815 35.632 119.815 36.176C119.815 36.72 119.607 37.168 119.191 37.52C118.807 37.84 118.295 38 117.655 38H117.031ZM135.365 38.24C132.773 38.24 130.469 37.68 128.453 36.56C126.469 35.408 124.901 33.824 123.749 31.808C122.629 29.792 122.069 27.488 122.069 24.896C122.069 22.272 122.597 19.968 123.653 17.984C124.741 15.968 126.229 14.384 128.117 13.232C130.005 12.08 132.181 11.504 134.645 11.504C137.077 11.504 139.189 12.064 140.981 13.184C142.805 14.272 144.213 15.792 145.205 17.744C146.197 19.696 146.693 21.92 146.693 24.416C146.693 24.928 146.533 25.344 146.213 25.664C145.893 25.952 145.477 26.096 144.965 26.096H125.573C125.765 27.824 126.293 29.36 127.157 30.704C128.021 32.016 129.157 33.056 130.565 33.824C131.973 34.56 133.573 34.928 135.365 34.928C136.517 34.928 137.669 34.736 138.821 34.352C140.005 33.936 140.949 33.424 141.653 32.816C142.005 32.528 142.405 32.384 142.853 32.384C143.301 32.352 143.685 32.464 144.005 32.72C144.421 33.104 144.629 33.52 144.629 33.968C144.661 34.416 144.485 34.8 144.101 35.12C143.045 36.016 141.701 36.768 140.069 37.376C138.437 37.952 136.869 38.24 135.365 38.24ZM134.645 14.816C132.181 14.816 130.149 15.584 128.549 17.12C126.949 18.624 125.989 20.592 125.669 23.024H143.237C142.981 20.592 142.085 18.624 140.549 17.12C139.045 15.584 137.077 14.816 134.645 14.816Z" fill="#277B77" fill-opacity="0.1"/>
</svg>
