<svg width="380" height="76" viewBox="0 0 380 76" fill="none" xmlns="http://www.w3.org/2000/svg">
<path d="M4.344 75C3.256 75 2.36 74.648 1.656 73.944C0.952 73.24 0.6 72.344 0.6 71.256V3.768C0.6 2.67999 0.952 1.78399 1.656 1.08C2.36 0.375998 3.256 0.0239983 4.344 0.0239983H23.544C28.28 0.0239983 32.472 1.08 36.12 3.192C39.768 5.24 42.616 8.088 44.664 11.736C46.712 15.384 47.736 19.608 47.736 24.408C47.736 29.08 46.712 33.24 44.664 36.888C42.616 40.472 39.768 43.32 36.12 45.432C32.472 47.48 28.28 48.504 23.544 48.504H8.088V71.256C8.088 72.344 7.736 73.24 7.032 73.944C6.328 74.648 5.432 75 4.344 75ZM8.088 41.304H23.544C26.808 41.304 29.72 40.6 32.28 39.192C34.84 37.72 36.824 35.704 38.232 33.144C39.704 30.584 40.44 27.672 40.44 24.408C40.44 21.016 39.704 18.04 38.232 15.48C36.824 12.92 34.84 10.904 32.28 9.432C29.72 7.96 26.808 7.224 23.544 7.224H8.088V41.304ZM62.0693 75C59.6373 75 58.4213 73.784 58.4213 71.352V26.136C58.4213 23.704 59.6373 22.488 62.0693 22.488C64.5013 22.488 65.7173 23.704 65.7173 26.136V30.264C67.6373 27.704 70.0053 25.688 72.8213 24.216C75.6373 22.68 78.7413 21.912 82.1333 21.912C85.0773 21.912 87.3493 22.328 88.9493 23.16C90.5493 23.992 91.1573 25.208 90.7733 26.808C90.4533 28.28 89.6853 29.048 88.4693 29.112C87.3173 29.112 85.9413 29.048 84.3413 28.92C80.7573 28.6 77.5573 28.984 74.7413 30.072C71.9893 31.096 69.7813 32.696 68.1173 34.872C66.5173 37.048 65.7173 39.64 65.7173 42.648V71.352C65.7173 73.784 64.5013 75 62.0693 75ZM122.45 75.48C117.33 75.48 112.754 74.328 108.722 72.024C104.69 69.72 101.522 66.552 99.2183 62.52C96.9143 58.488 95.7623 53.912 95.7623 48.792C95.7623 43.608 96.9143 39 99.2183 34.968C101.522 30.936 104.69 27.768 108.722 25.464C112.754 23.16 117.33 22.008 122.45 22.008C127.57 22.008 132.114 23.16 136.082 25.464C140.114 27.768 143.282 30.936 145.586 34.968C147.89 39 149.074 43.608 149.138 48.792C149.138 53.912 147.954 58.488 145.586 62.52C143.282 66.552 140.114 69.72 136.082 72.024C132.114 74.328 127.57 75.48 122.45 75.48ZM122.45 68.76C126.162 68.76 129.49 67.896 132.434 66.168C135.378 64.44 137.682 62.072 139.346 59.064C141.01 56.056 141.842 52.632 141.842 48.792C141.842 44.952 141.01 41.528 139.346 38.52C137.682 35.448 135.378 33.048 132.434 31.32C129.49 29.592 126.162 28.728 122.45 28.728C118.738 28.728 115.41 29.592 112.466 31.32C109.522 33.048 107.186 35.448 105.458 38.52C103.794 41.528 102.962 44.952 102.962 48.792C102.962 52.632 103.794 56.056 105.458 59.064C107.186 62.072 109.522 64.44 112.466 66.168C115.41 67.896 118.738 68.76 122.45 68.76ZM172.513 75C170.721 75 169.537 74.2 168.961 72.6L153.985 27.672C153.153 24.216 154.081 22.488 156.769 22.488C158.497 22.488 159.713 23.416 160.417 25.272L172.705 62.712L184.033 25.368C184.289 24.536 184.705 23.864 185.281 23.352C185.921 22.776 186.721 22.488 187.681 22.488C189.537 22.488 190.753 23.448 191.329 25.368L202.369 62.52L214.561 25.272C215.201 23.416 216.385 22.488 218.113 22.488C219.521 22.488 220.481 23.032 220.993 24.12C221.505 25.144 221.505 26.328 220.993 27.672L206.017 72.6C205.505 74.2 204.353 75 202.561 75C201.729 75 200.961 74.776 200.257 74.328C199.617 73.88 199.201 73.304 199.009 72.6L187.489 34.392L175.969 72.6C175.393 74.2 174.241 75 172.513 75ZM253.604 75.48C248.42 75.48 243.812 74.36 239.78 72.12C235.812 69.816 232.676 66.648 230.372 62.616C228.132 58.584 227.012 53.976 227.012 48.792C227.012 43.544 228.068 38.936 230.18 34.968C232.356 30.936 235.332 27.768 239.108 25.464C242.884 23.16 247.236 22.008 252.164 22.008C257.028 22.008 261.252 23.128 264.836 25.368C268.484 27.544 271.3 30.584 273.284 34.488C275.268 38.392 276.26 42.84 276.26 47.832C276.26 48.856 275.94 49.688 275.3 50.328C274.66 50.904 273.828 51.192 272.804 51.192H234.02C234.404 54.648 235.46 57.72 237.188 60.408C238.916 63.032 241.188 65.112 244.004 66.648C246.82 68.12 250.02 68.856 253.604 68.856C255.908 68.856 258.212 68.472 260.516 67.704C262.884 66.872 264.772 65.848 266.18 64.632C266.884 64.056 267.684 63.768 268.58 63.768C269.476 63.704 270.244 63.928 270.884 64.44C271.716 65.208 272.132 66.04 272.132 66.936C272.196 67.832 271.844 68.6 271.076 69.24C268.964 71.032 266.276 72.536 263.012 73.752C259.748 74.904 256.612 75.48 253.604 75.48ZM252.164 28.632C247.236 28.632 243.172 30.168 239.972 33.24C236.772 36.248 234.852 40.184 234.212 45.048H269.348C268.836 40.184 267.044 36.248 263.972 33.24C260.964 30.168 257.028 28.632 252.164 28.632ZM307.101 75.48C303.325 75.48 299.581 74.84 295.869 73.56C292.157 72.28 289.149 70.36 286.845 67.8C286.141 67.032 285.853 66.168 285.981 65.208C286.109 64.248 286.589 63.416 287.421 62.712C288.317 62.072 289.245 61.816 290.205 61.944C291.165 62.072 291.965 62.488 292.605 63.192C294.141 64.984 296.157 66.36 298.653 67.32C301.213 68.28 304.029 68.76 307.101 68.76C311.837 68.76 315.261 67.96 317.373 66.36C319.485 64.696 320.573 62.712 320.637 60.408C320.637 58.104 319.549 56.216 317.373 54.744C315.197 53.208 311.613 52.024 306.621 51.192C300.157 50.168 295.421 48.376 292.413 45.816C289.405 43.256 287.901 40.216 287.901 36.696C287.901 33.432 288.765 30.712 290.493 28.536C292.221 26.36 294.525 24.728 297.405 23.64C300.285 22.552 303.453 22.008 306.909 22.008C311.197 22.008 314.877 22.744 317.949 24.216C321.085 25.688 323.613 27.672 325.533 30.168C326.173 31 326.429 31.864 326.301 32.76C326.173 33.656 325.661 34.392 324.765 34.968C323.997 35.416 323.101 35.576 322.077 35.448C321.117 35.256 320.285 34.776 319.581 34.008C316.445 30.424 312.157 28.632 306.717 28.632C303.197 28.632 300.381 29.368 298.269 30.84C296.157 32.248 295.101 34.04 295.101 36.216C295.101 38.392 296.029 40.184 297.885 41.592C299.805 43 303.389 44.152 308.637 45.048C313.437 45.816 317.213 46.968 319.965 48.504C322.781 49.976 324.765 51.736 325.917 53.784C327.133 55.768 327.741 57.944 327.741 60.312C327.741 63.32 326.845 65.976 325.053 68.28C323.325 70.52 320.893 72.28 317.757 73.56C314.685 74.84 311.133 75.48 307.101 75.48ZM358.851 75.48C355.075 75.48 351.331 74.84 347.619 73.56C343.907 72.28 340.899 70.36 338.595 67.8C337.891 67.032 337.603 66.168 337.731 65.208C337.859 64.248 338.339 63.416 339.171 62.712C340.067 62.072 340.995 61.816 341.955 61.944C342.915 62.072 343.715 62.488 344.355 63.192C345.891 64.984 347.907 66.36 350.403 67.32C352.963 68.28 355.779 68.76 358.851 68.76C363.587 68.76 367.011 67.96 369.123 66.36C371.235 64.696 372.323 62.712 372.387 60.408C372.387 58.104 371.299 56.216 369.123 54.744C366.947 53.208 363.363 52.024 358.371 51.192C351.907 50.168 347.171 48.376 344.163 45.816C341.155 43.256 339.651 40.216 339.651 36.696C339.651 33.432 340.515 30.712 342.243 28.536C343.971 26.36 346.275 24.728 349.155 23.64C352.035 22.552 355.203 22.008 358.659 22.008C362.947 22.008 366.627 22.744 369.699 24.216C372.835 25.688 375.363 27.672 377.283 30.168C377.923 31 378.179 31.864 378.051 32.76C377.923 33.656 377.411 34.392 376.515 34.968C375.747 35.416 374.851 35.576 373.827 35.448C372.867 35.256 372.035 34.776 371.331 34.008C368.195 30.424 363.907 28.632 358.467 28.632C354.947 28.632 352.131 29.368 350.019 30.84C347.907 32.248 346.851 34.04 346.851 36.216C346.851 38.392 347.779 40.184 349.635 41.592C351.555 43 355.139 44.152 360.387 45.048C365.187 45.816 368.963 46.968 371.715 48.504C374.531 49.976 376.515 51.736 377.667 53.784C378.883 55.768 379.491 57.944 379.491 60.312C379.491 63.32 378.595 65.976 376.803 68.28C375.075 70.52 372.643 72.28 369.507 73.56C366.435 74.84 362.883 75.48 358.851 75.48Z" fill="#277B77" fill-opacity="0.1"/>
</svg>
